<svg width="490" height="188" viewBox="0 0 490 188" fill="none" xmlns="http://www.w3.org/2000/svg">
<path d="M47 59H216V85H13L47 59Z" fill="#C4C4C4"/>
<path d="M56.8867 3H280V29H12L56.8867 3Z" fill="#C4C4C4"/>
<path d="M36 115H153V144H0L36 115Z" fill="#C4C4C4"/>
<path d="M272 0.00458012C201.2 0.40458 145.833 47.5046 127 71.0046C124.333 73.0046 119 78.1046 119 82.5046C119 88.0046 92.5 86.5 77 105.005H127H149.5C148.333 110.671 140.6 122.005 119 122.005C97.4 122.005 77.3333 144.671 70 156.005C78.3333 156.505 101.4 157.205 127 156.005C152.6 154.805 170 127.838 175.5 114.505C182.667 117.005 203.2 122.005 228 122.005C259 122.005 320 115.505 318.5 122.005C317 128.505 305.5 137.5 288.5 146.5C271.5 155.5 206.5 158.5 203 173C199.5 187.5 341 192 368.5 181.5C396 171 348 122.005 375.5 105.005C403 88.0046 433 101.505 457 89.5046C481 77.5046 496.417 73.0555 485.5 57.5046C469 34 428 25.0046 416 38.5046C406.4 49.3046 393.5 48.3333 375.5 49.5L383 38.5046C380.333 25.5046 342.8 -0.39542 272 0.00458012Z" fill="#2281A3"/>
</svg>
